<svg xmlns="http://www.w3.org/2000/svg" viewBox="0 0 781.85 206.74"><g id="Layer_2" data-name="Layer 2"><g id="Layer_1-2" data-name="Layer 1"><path d="M85.93,243.09q-21.2,0-38-7.49a63,63,0,0,1-26.85-22Q11,199,9.89,178.36q-.29-4.52-.28-11.31t.28-11.59Q11,134.55,20.92,120a61.94,61.94,0,0,1,26.85-22q17-7.48,38.16-7.49,20.91,0,35.76,5.94t24,14.7a67.48,67.48,0,0,1,13.7,17.52q4.53,8.76,4.81,14.7a6.28,6.28,0,0,1-2.12,5.37,7.49,7.49,0,0,1-5.23,2.26H111.37a6.83,6.83,0,0,1-4.8-1.55,15,15,0,0,1-3.11-4.38,24.91,24.91,0,0,0-6.5-9.19q-3.69-3-9.9-3-8.76,0-13,6.08t-4.52,17.95a175.34,175.34,0,0,0,0,20.07q.55,12.15,4.66,18t12.86,5.79q7.06,0,10.46-3t5.94-9.18a10.89,10.89,0,0,1,3-4.38,7.41,7.41,0,0,1,5-1.56h45.51a7.54,7.54,0,0,1,5.23,2.26,6.29,6.29,0,0,1,2.12,5.37,37.49,37.49,0,0,1-3,10.6,60.12,60.12,0,0,1-8.2,13.85,67.89,67.89,0,0,1-14.55,13.71,77.31,77.31,0,0,1-22,10.6Q103.46,243.08,85.93,243.09Z" transform="translate(-9.61 -36.35)"/><path d="M179.21,240.27a7.24,7.24,0,0,1-7.35-7.35v-186a7.24,7.24,0,0,1,7.35-7.35H225a7.28,7.28,0,0,1,5.09,2.12,6.91,6.91,0,0,1,2.26,5.23v61.9A52,52,0,0,1,250.86,95.4a61.84,61.84,0,0,1,25.3-5,57.48,57.48,0,0,1,28.13,7.07q12.85,7.07,20.63,21.2t7.78,35.61v78.59a6.93,6.93,0,0,1-2.26,5.23,7.28,7.28,0,0,1-5.09,2.12H279.27a7.24,7.24,0,0,1-7.35-7.35V156.31q0-10.45-5.08-16.11t-14.42-5.65q-9.33,0-14.7,5.65t-5.37,16.11v76.61a6.93,6.93,0,0,1-2.26,5.23,7.28,7.28,0,0,1-5.09,2.12Z" transform="translate(-9.61 -36.35)"/><path d="M418.34,243.09q-35.34,0-56.11-18.23T340.89,169v-5.65q.86-23.46,10.32-39.72a61.86,61.86,0,0,1,26.57-24.73q17.1-8.48,40.28-8.48,26,0,43.11,10.32a65.67,65.67,0,0,1,25.58,27.42q8.47,17.1,8.48,38.3v7.91a7,7,0,0,1-2.26,5.09,7.33,7.33,0,0,1-5.37,2.26H400.53v1.7a36,36,0,0,0,1.84,12,17,17,0,0,0,5.8,8.2A17.27,17.27,0,0,0,424,205.5a14.36,14.36,0,0,0,4.38-3q1.83-1.83,3.25-3.53a14.94,14.94,0,0,1,4.24-3.26A14.17,14.17,0,0,1,441,195h44.38a6.25,6.25,0,0,1,4.38,1.69,4.76,4.76,0,0,1,1.55,4.24q-.28,5.1-4.8,12.3a54.5,54.5,0,0,1-13.43,14q-8.91,6.78-22.76,11.31T418.34,243.09Zm-17.81-93h35.06v-.56a37.94,37.94,0,0,0-2-13,16.09,16.09,0,0,0-5.94-8.06,18.51,18.51,0,0,0-19.22,0,16.09,16.09,0,0,0-5.94,8.06,37.7,37.7,0,0,0-2,13Z" transform="translate(-9.61 -36.35)"/><path d="M569,243.09q-19.21,0-32.79-4.1T514,228.68q-8.62-6.23-12.57-12.87t-4.24-11.73a6.26,6.26,0,0,1,1.83-5.23,6.51,6.51,0,0,1,4.67-2.12h41a3.69,3.69,0,0,1,.85.15,2.5,2.5,0,0,1,1.13.7,21.52,21.52,0,0,1,6.93,3.68,40.18,40.18,0,0,0,7.35,4.52,22.2,22.2,0,0,0,9.75,2,17.48,17.48,0,0,0,8.62-2.12,6.65,6.65,0,0,0,3.82-6.08,9,9,0,0,0-2.12-5.94c-1.42-1.69-4.38-3.34-8.91-4.94s-11.78-3.35-21.76-5.23a107.66,107.66,0,0,1-25.3-8.34A46.26,46.26,0,0,1,507,160.27q-6.65-9.33-6.65-22.9,0-11.58,7.64-22.33T530.7,97.38q15.12-6.93,37.17-6.93a100.49,100.49,0,0,1,29.54,4,83.39,83.39,0,0,1,21.77,9.89A49.56,49.56,0,0,1,632.75,117q4.65,6.78,4.94,12.16a6.49,6.49,0,0,1-1.69,5.23,6.06,6.06,0,0,1-4.53,2.12h-37a12.17,12.17,0,0,1-1.83-.15,2.6,2.6,0,0,1-1.56-.7,18.63,18.63,0,0,1-7.21-3.25,75.06,75.06,0,0,0-6.92-4.53,18.51,18.51,0,0,0-9.33-2.12,12.45,12.45,0,0,0-7.77,2.27,7.11,7.11,0,0,0-3,5.93,9,9,0,0,0,2,5.66q2,2.54,9,4.8t22.33,4.81q19.78,3.1,31.66,10.31t17,16.82a40.81,40.81,0,0,1,5.09,19.22,39,39,0,0,1-8.62,25.16q-8.62,10.76-25.44,16.54T569,243.09Z" transform="translate(-9.61 -36.35)"/><path d="M716.55,243.09q-19.21,0-32.79-4.1t-22.19-10.31q-8.62-6.23-12.57-12.87t-4.24-11.73a6.26,6.26,0,0,1,1.83-5.23,6.51,6.51,0,0,1,4.67-2.12h41a3.69,3.69,0,0,1,.85.15,2.5,2.5,0,0,1,1.13.7,21.52,21.52,0,0,1,6.93,3.68,40.18,40.18,0,0,0,7.35,4.52,22.2,22.2,0,0,0,9.75,2,17.48,17.48,0,0,0,8.62-2.12,6.65,6.65,0,0,0,3.82-6.08,9,9,0,0,0-2.12-5.94c-1.42-1.69-4.38-3.34-8.91-4.94s-11.78-3.35-21.76-5.23a107.66,107.66,0,0,1-25.3-8.34,46.26,46.26,0,0,1-18.09-14.84q-6.64-9.33-6.65-22.9,0-11.58,7.64-22.33t22.75-17.66q15.12-6.93,37.17-6.93a100.49,100.49,0,0,1,29.54,4,83.39,83.39,0,0,1,21.77,9.89A49.56,49.56,0,0,1,780.3,117q4.65,6.78,4.94,12.16a6.49,6.49,0,0,1-1.69,5.23,6.06,6.06,0,0,1-4.53,2.12H742a12.17,12.17,0,0,1-1.83-.15,2.6,2.6,0,0,1-1.56-.7,18.63,18.63,0,0,1-7.21-3.25,75.06,75.06,0,0,0-6.92-4.53,18.51,18.51,0,0,0-9.33-2.12,12.45,12.45,0,0,0-7.77,2.27,7.11,7.11,0,0,0-3,5.93,9,9,0,0,0,2,5.66q2,2.54,9,4.8t22.33,4.81q19.79,3.1,31.66,10.31t17,16.82a40.81,40.81,0,0,1,5.09,19.22,39,39,0,0,1-8.62,25.16q-8.62,10.76-25.44,16.54T716.55,243.09Z" transform="translate(-9.61 -36.35)"/><path d="M261.87,76.34a12,12,0,0,1-5.46-1.13,7.28,7.28,0,0,1-3.29-3.38A12.87,12.87,0,0,1,252,66.24V54h-4.27a1.3,1.3,0,0,1-1.3-1.3V49.54a1.3,1.3,0,0,1,1.3-1.3H252v-9a1.28,1.28,0,0,1,.35-.92,1.23,1.23,0,0,1,.94-.38h4.38a1.3,1.3,0,0,1,1.3,1.3v9h6.75a1.3,1.3,0,0,1,1.3,1.3v3.13a1.3,1.3,0,0,1-1.3,1.3H259V65.69a6.5,6.5,0,0,0,.78,3.46,3,3,0,0,0,2.73,1.25h3.73a1.25,1.25,0,0,1,.92.37,1.28,1.28,0,0,1,.38.92V75a1.3,1.3,0,0,1-1.3,1.3Z" transform="translate(-9.61 -36.35)"/><path d="M271,76.34a1.24,1.24,0,0,1-.91-.38,1.22,1.22,0,0,1-.38-.92V39.27a1.22,1.22,0,0,1,.38-.92A1.24,1.24,0,0,1,271,38h4.81a1.25,1.25,0,0,1,.95.38,1.32,1.32,0,0,1,.35.92V51.59a11.39,11.39,0,0,1,3.57-2.81,11.25,11.25,0,0,1,5.18-1.08,10.93,10.93,0,0,1,5.76,1.49,10,10,0,0,1,3.81,4.18,14.43,14.43,0,0,1,1.35,6.49V75a1.3,1.3,0,0,1-1.3,1.3h-4.86a1.3,1.3,0,0,1-1.3-1.3V60.18a7.22,7.22,0,0,0-1.54-4.91,5.56,5.56,0,0,0-4.46-1.79,6,6,0,0,0-4.51,1.79,6.82,6.82,0,0,0-1.7,4.91V75a1.32,1.32,0,0,1-.35.92,1.25,1.25,0,0,1-.95.38Z" transform="translate(-9.61 -36.35)"/><path d="M313.05,76.88q-6,0-9.52-3.46t-3.78-9.83c0-.36-.05-.82-.05-1.38s0-1,.05-1.32a16.12,16.12,0,0,1,1.87-7,11.4,11.4,0,0,1,4.56-4.57,14.17,14.17,0,0,1,6.87-1.59,13.91,13.91,0,0,1,7.35,1.81,11.46,11.46,0,0,1,4.48,5A17.24,17.24,0,0,1,326.39,62V63.1A1.25,1.25,0,0,1,326,64a1.35,1.35,0,0,1-1,.38H307.1v.43a9.7,9.7,0,0,0,.73,3.49,6.06,6.06,0,0,0,2,2.56,5.18,5.18,0,0,0,3.16,1,5.93,5.93,0,0,0,4.22-1.51,7.5,7.5,0,0,0,.92-1,2.51,2.51,0,0,1,.78-.78,2.23,2.23,0,0,1,.89-.14h4.65a1.3,1.3,0,0,1,.89.32,1,1,0,0,1,.3.82,4.61,4.61,0,0,1-.9,2.1,10.56,10.56,0,0,1-2.4,2.44,13.56,13.56,0,0,1-3.92,2A17,17,0,0,1,313.05,76.88Zm-5.95-17H319V59.7a8.92,8.92,0,0,0-.7-3.68,5.81,5.81,0,0,0-2-2.48A5.72,5.72,0,0,0,307.78,56a9.26,9.26,0,0,0-.68,3.68Z" transform="translate(-9.61 -36.35)"/><path d="M354.65,76.88a11.24,11.24,0,0,1-5.21-1.08A10.55,10.55,0,0,1,346,73v2a1.32,1.32,0,0,1-.35.92,1.25,1.25,0,0,1-1,.38h-4.27a1.28,1.28,0,0,1-1.29-1.3V39.27a1.28,1.28,0,0,1,1.29-1.3H345a1.23,1.23,0,0,1,.94.38,1.28,1.28,0,0,1,.35.92v12a10.56,10.56,0,0,1,3.38-2.57,11,11,0,0,1,4.94-1,11.8,11.8,0,0,1,5,1,9.92,9.92,0,0,1,3.54,2.73,12.49,12.49,0,0,1,2.18,4.08,16.93,16.93,0,0,1,.81,5c0,.65.06,1.23.06,1.75s0,1.11-.06,1.76a19.33,19.33,0,0,1-.86,5.16,12.42,12.42,0,0,1-2.16,4.08,9.52,9.52,0,0,1-3.51,2.68A12.29,12.29,0,0,1,354.65,76.88Zm-2-5.78a5.82,5.82,0,0,0,3.63-1,5.59,5.59,0,0,0,1.86-2.62,12.79,12.79,0,0,0,.67-3.57,21.9,21.9,0,0,0,0-3.24,12.79,12.79,0,0,0-.67-3.57,5.59,5.59,0,0,0-1.86-2.62,7,7,0,0,0-7.14,0,6.34,6.34,0,0,0-2.05,2.46,7.86,7.86,0,0,0-.76,3.11c0,.65-.05,1.34-.05,2.08s0,1.43.05,2.08a10.91,10.91,0,0,0,.73,3.27,5.59,5.59,0,0,0,5.59,3.65Z" transform="translate(-9.61 -36.35)"/><path d="M381.62,76.88q-6,0-9.51-3.46t-3.78-9.83a12.93,12.93,0,0,1-.06-1.38,11.25,11.25,0,0,1,.06-1.32,16,16,0,0,1,1.86-7,11.42,11.42,0,0,1,4.57-4.57,14.1,14.1,0,0,1,6.86-1.59A13.86,13.86,0,0,1,389,49.51a11.46,11.46,0,0,1,4.48,5A17.24,17.24,0,0,1,395,62V63.1a1.26,1.26,0,0,1-.38.92,1.33,1.33,0,0,1-1,.38H375.67v.43a9.7,9.7,0,0,0,.73,3.49,6.06,6.06,0,0,0,2,2.56,5.2,5.2,0,0,0,3.16,1,6.31,6.31,0,0,0,2.54-.45,6.14,6.14,0,0,0,1.68-1.06,6.86,6.86,0,0,0,.92-1,2.51,2.51,0,0,1,.78-.78,2.26,2.26,0,0,1,.89-.14H393a1.28,1.28,0,0,1,.89.32.9.9,0,0,1,.3.82,4.57,4.57,0,0,1-.89,2.1,10.62,10.62,0,0,1-2.41,2.44,13.49,13.49,0,0,1-3.91,2A17.07,17.07,0,0,1,381.62,76.88Zm-5.95-17h11.95V59.7a8.91,8.91,0,0,0-.71-3.68,5.74,5.74,0,0,0-2.05-2.48,6.17,6.17,0,0,0-6.48,0,5.63,5.63,0,0,0-2,2.48,9.26,9.26,0,0,0-.68,3.68Z" transform="translate(-9.61 -36.35)"/><path d="M406.15,76.88a11.44,11.44,0,0,1-5.08-1.11,9.25,9.25,0,0,1-3.59-3,7.38,7.38,0,0,1,1.73-10.21,17.89,17.89,0,0,1,8.08-3l7.4-1.08V57.37a5.05,5.05,0,0,0-1.13-3.51c-.76-.83-2.06-1.24-3.9-1.24a5.78,5.78,0,0,0-3.16.78,4.86,4.86,0,0,0-1.81,2.08,1.37,1.37,0,0,1-1.24.7h-4.27a1.13,1.13,0,0,1-.89-.32A1.22,1.22,0,0,1,398,55a5.63,5.63,0,0,1,.7-2.11,8.16,8.16,0,0,1,2.06-2.41,12.21,12.21,0,0,1,3.62-2,15.65,15.65,0,0,1,5.35-.81,17.15,17.15,0,0,1,5.75.84,9.93,9.93,0,0,1,3.76,2.24,8.47,8.47,0,0,1,2,3.3,12.29,12.29,0,0,1,.65,4V75a1.3,1.3,0,0,1-1.3,1.3h-4.37a1.25,1.25,0,0,1-.95-.38A1.32,1.32,0,0,1,415,75v-2.1a8.32,8.32,0,0,1-1.89,1.91,9.79,9.79,0,0,1-2.89,1.46A12.76,12.76,0,0,1,406.15,76.88ZM408,71.75a7.26,7.26,0,0,0,3.43-.81,5.71,5.71,0,0,0,2.43-2.52,9.1,9.1,0,0,0,.89-4.29V63l-5.4.87a11.6,11.6,0,0,0-4.76,1.56A3.18,3.18,0,0,0,403,68.07a3,3,0,0,0,.73,2,4.27,4.27,0,0,0,1.86,1.24A7,7,0,0,0,408,71.75Z" transform="translate(-9.61 -36.35)"/><path d="M436.58,76.88a10.59,10.59,0,0,1-5.71-1.49,9.75,9.75,0,0,1-3.7-4.21,15,15,0,0,1-1.29-6.46V49.54a1.25,1.25,0,0,1,.37-.92,1.28,1.28,0,0,1,.92-.38h4.76a1.23,1.23,0,0,1,.94.38,1.28,1.28,0,0,1,.36.92V64.4q0,6.7,5.89,6.7a5.79,5.79,0,0,0,4.45-1.78,7,7,0,0,0,1.65-4.92V49.54a1.3,1.3,0,0,1,1.3-1.3h4.75a1.3,1.3,0,0,1,1.3,1.3V75a1.3,1.3,0,0,1-1.3,1.3H446.9A1.25,1.25,0,0,1,446,76a1.32,1.32,0,0,1-.35-.92V72.83a10.35,10.35,0,0,1-3.62,3A12,12,0,0,1,436.58,76.88Z" transform="translate(-9.61 -36.35)"/><path d="M469.7,76.34a12,12,0,0,1-5.46-1.13A7.28,7.28,0,0,1,461,71.83a12.87,12.87,0,0,1-1.08-5.59V54H455.6a1.3,1.3,0,0,1-1.3-1.3V49.54a1.3,1.3,0,0,1,1.3-1.3h4.27v-9a1.28,1.28,0,0,1,.35-.92,1.23,1.23,0,0,1,.94-.38h4.38a1.3,1.3,0,0,1,1.3,1.3v9h6.75a1.3,1.3,0,0,1,1.3,1.3v3.13a1.3,1.3,0,0,1-1.3,1.3h-6.75V65.69a6.5,6.5,0,0,0,.78,3.46,3,3,0,0,0,2.73,1.25h3.73a1.26,1.26,0,0,1,1.29,1.29V75A1.25,1.25,0,0,1,475,76a1.28,1.28,0,0,1-.92.38Z" transform="translate(-9.61 -36.35)"/><path d="M478.56,43.59a1.23,1.23,0,0,1-.94-.35,1.24,1.24,0,0,1-.35-.94V38.41a1.28,1.28,0,0,1,.35-.92,1.21,1.21,0,0,1,.94-.38h4.92a1.31,1.31,0,0,1,1,.38,1.26,1.26,0,0,1,.38.92V42.3a1.23,1.23,0,0,1-.38.94,1.33,1.33,0,0,1-1,.35Zm.22,32.75a1.3,1.3,0,0,1-1.3-1.3V49.54a1.3,1.3,0,0,1,1.3-1.3h4.48a1.25,1.25,0,0,1,.95.38,1.32,1.32,0,0,1,.35.92V75a1.32,1.32,0,0,1-.35.92,1.25,1.25,0,0,1-.95.38Z" transform="translate(-9.61 -36.35)"/><path d="M493.37,76.34a1.3,1.3,0,0,1-1.3-1.3V54h-4.38a1.28,1.28,0,0,1-.92-.38,1.25,1.25,0,0,1-.37-.92V49.54a1.25,1.25,0,0,1,.37-.92,1.28,1.28,0,0,1,.92-.38h4.38V46a10.94,10.94,0,0,1,1.19-5.37,7.54,7.54,0,0,1,3.51-3.22,14,14,0,0,1,5.89-1.08h3.68a1.23,1.23,0,0,1,.94.38,1.28,1.28,0,0,1,.35.92v3.13a1.28,1.28,0,0,1-.35.92,1.23,1.23,0,0,1-.94.38h-3.46a3.51,3.51,0,0,0-3,1.08,5.17,5.17,0,0,0-.81,3.13v2h6.7a1.23,1.23,0,0,1,.94.38,1.28,1.28,0,0,1,.35.92v3.13a1.28,1.28,0,0,1-.35.92,1.23,1.23,0,0,1-.94.38h-6.7V75a1.3,1.3,0,0,1-1.3,1.3Z" transform="translate(-9.61 -36.35)"/><path d="M519.14,76.88a10.53,10.53,0,0,1-5.7-1.49,9.69,9.69,0,0,1-3.7-4.21,15,15,0,0,1-1.3-6.46V49.54a1.3,1.3,0,0,1,1.3-1.3h4.76a1.23,1.23,0,0,1,.94.38,1.28,1.28,0,0,1,.35.92V64.4q0,6.7,5.89,6.7a5.8,5.8,0,0,0,4.46-1.78,7,7,0,0,0,1.65-4.92V49.54a1.22,1.22,0,0,1,.38-.92,1.26,1.26,0,0,1,.92-.38h4.75a1.3,1.3,0,0,1,1.3,1.3V75a1.3,1.3,0,0,1-1.3,1.3h-4.38a1.23,1.23,0,0,1-.94-.38,1.28,1.28,0,0,1-.35-.92V72.83a10.44,10.44,0,0,1-3.62,3A12.1,12.1,0,0,1,519.14,76.88Z" transform="translate(-9.61 -36.35)"/><path d="M540.92,76.34a1.3,1.3,0,0,1-1.3-1.3V39.27a1.3,1.3,0,0,1,1.3-1.3h4.48a1.24,1.24,0,0,1,.92.38,1.22,1.22,0,0,1,.38.92V75a1.22,1.22,0,0,1-.38.92,1.24,1.24,0,0,1-.92.38Z" transform="translate(-9.61 -36.35)"/><path d="M573.56,88.23a17.41,17.41,0,0,1-6.49-1,11.8,11.8,0,0,1-4-2.48A9.75,9.75,0,0,1,561,81.83a7.37,7.37,0,0,1-.67-2.25,1.1,1.1,0,0,1,.35-.94,1.31,1.31,0,0,1,1-.41h4.7a1.39,1.39,0,0,1,.86.24,1.78,1.78,0,0,1,.54.9,12.41,12.41,0,0,0,.87,1.51,4.26,4.26,0,0,0,1.65,1.38,6.72,6.72,0,0,0,3,.56,8.84,8.84,0,0,0,3.46-.59,4.19,4.19,0,0,0,2.13-2,8.5,8.5,0,0,0,.73-3.89V72.67a9.7,9.7,0,0,1-3.32,2.54,11.64,11.64,0,0,1-5,1,12.23,12.23,0,0,1-5-1,9.55,9.55,0,0,1-3.51-2.65,11.54,11.54,0,0,1-2.13-4,19.38,19.38,0,0,1-.84-5.13c0-1,0-2,0-2.92a20,20,0,0,1,.81-5,11.85,11.85,0,0,1,2.13-4.08,9.92,9.92,0,0,1,3.54-2.73,11.91,11.91,0,0,1,5-1,10.7,10.7,0,0,1,5.19,1.16,11.43,11.43,0,0,1,3.46,2.89V49.59a1.32,1.32,0,0,1,.37-1,1.26,1.26,0,0,1,.92-.38h4.38a1.26,1.26,0,0,1,.92.38,1.33,1.33,0,0,1,.38,1L587,75.64a14.43,14.43,0,0,1-1.46,6.7,10.11,10.11,0,0,1-4.4,4.35A16.2,16.2,0,0,1,573.56,88.23Zm-.27-17.78a5.93,5.93,0,0,0,3.56-1,5.75,5.75,0,0,0,2-2.54,9.84,9.84,0,0,0,.76-3.19c0-.47.06-1.06.06-1.78s0-1.3-.06-1.73a9.65,9.65,0,0,0-.76-3.22,6,6,0,0,0-2-2.54,6.85,6.85,0,0,0-7.13,0,5.44,5.44,0,0,0-1.92,2.62,13.16,13.16,0,0,0-.67,3.57,16.74,16.74,0,0,0,0,2.65,13.39,13.39,0,0,0,.67,3.54,5.26,5.26,0,0,0,1.92,2.62A6,6,0,0,0,573.29,70.45Z" transform="translate(-9.61 -36.35)"/><path d="M599.6,76.88a11.44,11.44,0,0,1-5.08-1.11,9.25,9.25,0,0,1-3.59-3,7.41,7.41,0,0,1,1.73-10.21,17.93,17.93,0,0,1,8.08-3l7.4-1.08V57.37A5.05,5.05,0,0,0,607,53.86c-.76-.83-2.06-1.24-3.89-1.24a5.76,5.76,0,0,0-3.16.78,4.79,4.79,0,0,0-1.81,2.08,1.39,1.39,0,0,1-1.25.7h-4.27a1.14,1.14,0,0,1-.89-.32,1.22,1.22,0,0,1-.3-.86,5.67,5.67,0,0,1,.71-2.11,8,8,0,0,1,2.05-2.41,12.34,12.34,0,0,1,3.62-2,15.65,15.65,0,0,1,5.35-.81,17.26,17.26,0,0,1,5.76.84,10,10,0,0,1,3.75,2.24,8.61,8.61,0,0,1,2.06,3.3,12.28,12.28,0,0,1,.64,4V75A1.25,1.25,0,0,1,615,76a1.28,1.28,0,0,1-.92.38h-4.38a1.25,1.25,0,0,1-1-.38,1.32,1.32,0,0,1-.35-.92v-2.1a8.32,8.32,0,0,1-1.89,1.91,9.67,9.67,0,0,1-2.89,1.46A12.72,12.72,0,0,1,599.6,76.88Zm1.84-5.13a7.23,7.23,0,0,0,3.43-.81,5.78,5.78,0,0,0,2.44-2.52,9.22,9.22,0,0,0,.89-4.29V63l-5.41.87A11.55,11.55,0,0,0,598,65.42a3.17,3.17,0,0,0-1.57,2.65,3,3,0,0,0,.73,2,4.39,4.39,0,0,0,1.86,1.24A7,7,0,0,0,601.44,71.75Z" transform="translate(-9.61 -36.35)"/><path d="M620.9,76.34a1.3,1.3,0,0,1-1.3-1.3V49.54a1.3,1.3,0,0,1,1.3-1.3h4.21a1.3,1.3,0,0,1,1.3,1.3v1.83a9.36,9.36,0,0,1,3.05-2.56A9.86,9.86,0,0,1,634,47.7q6.15-.11,8.59,4.81A9.42,9.42,0,0,1,646.21,49a10.49,10.49,0,0,1,5.22-1.32,10.13,10.13,0,0,1,5.1,1.3,9,9,0,0,1,3.62,3.91,14.56,14.56,0,0,1,1.33,6.62V75a1.3,1.3,0,0,1-1.3,1.3h-4.43a1.3,1.3,0,0,1-1.3-1.3V60a8.9,8.9,0,0,0-.7-3.87,4.24,4.24,0,0,0-1.89-2,5.77,5.77,0,0,0-2.65-.6,5.28,5.28,0,0,0-2.38.6,4.48,4.48,0,0,0-1.94,2,8.29,8.29,0,0,0-.76,3.87V75a1.22,1.22,0,0,1-.38.92,1.24,1.24,0,0,1-.91.38H638.4a1.23,1.23,0,0,1-.94-.38,1.28,1.28,0,0,1-.35-.92V60a8.42,8.42,0,0,0-.76-3.87,4.48,4.48,0,0,0-1.94-2,5.58,5.58,0,0,0-2.54-.6,5.29,5.29,0,0,0-2.44.62,4.72,4.72,0,0,0-1.94,2,8.1,8.1,0,0,0-.76,3.84V75a1.22,1.22,0,0,1-.38.92,1.24,1.24,0,0,1-.91.38Z" transform="translate(-9.61 -36.35)"/><path d="M677.74,76.88q-6,0-9.51-3.46t-3.78-9.83a13.32,13.32,0,0,1-.05-1.38,11.65,11.65,0,0,1,.05-1.32,16.12,16.12,0,0,1,1.86-7,11.48,11.48,0,0,1,4.57-4.57,14.13,14.13,0,0,1,6.86-1.59,13.86,13.86,0,0,1,7.35,1.81,11.48,11.48,0,0,1,4.49,5A17.24,17.24,0,0,1,691.09,62V63.1a1.26,1.26,0,0,1-.38.92,1.31,1.31,0,0,1-1,.38H671.8v.43a9.7,9.7,0,0,0,.73,3.49,6.06,6.06,0,0,0,2,2.56,5.16,5.16,0,0,0,3.16,1,6.34,6.34,0,0,0,2.54-.45,6.23,6.23,0,0,0,1.67-1.06,6.31,6.31,0,0,0,.92-1,2.62,2.62,0,0,1,.79-.78,2.19,2.19,0,0,1,.89-.14h4.65a1.3,1.3,0,0,1,.89.32.92.92,0,0,1,.29.82,4.47,4.47,0,0,1-.89,2.1,10.77,10.77,0,0,1-2.4,2.44,13.56,13.56,0,0,1-3.92,2A17.07,17.07,0,0,1,677.74,76.88Zm-5.94-17h11.94V59.7A8.92,8.92,0,0,0,683,56a5.81,5.81,0,0,0-2-2.48A5.72,5.72,0,0,0,672.48,56a9.09,9.09,0,0,0-.68,3.68Z" transform="translate(-9.61 -36.35)"/></g></g></svg>