<svg xmlns="http://www.w3.org/2000/svg" fill="none" viewBox="0 0 1440 471"><path d="M741.33 58.64c3.67-1.74 5.97-4.86 5.97-9.47 0-10.21-9.09-11.77-17.56-11.77H713.3V81h17.31C740.4 81 749 79.44 749 68.86c0-5.24-2.93-8.54-7.66-10.22ZM729.3 44.75c5.05 0 8.79.31 8.79 5.17 0 5.05-3.74 5.17-8.85 5.17h-6.54V44.75h6.6Zm-6.6 28.9V62.44h7.79c4.67 0 9.28.19 9.28 5.73 0 5.17-3.68 5.48-9.6 5.48h-7.47Zm50.5-6.85c0 6.23-2.74 8.35-5.73 8.35-1.74 0-3.11-.2-4.3-1.5-1.24-1.43-1.36-3.36-1.36-6.23V49.86h-8.91v18c0 4.17.37 7.9 2.8 10.46 2.24 2.37 4.92 3.43 8.85 3.43 4.1 0 7.16-1.8 8.78-5.11V81h8.47V49.86h-8.6V66.8Zm23.06-21.05v-8.97h-8.72v8.97h8.72Zm0 35.25V49.86h-8.72V81h8.72Zm14.45 0V37.4H802V81h8.72Zm26.72-27.53c-1.87-2.8-4.99-4.36-8.78-4.36-8.35 0-13.83 6.48-13.83 16.32 0 10.15 5.79 16.32 13.89 16.32 3.92 0 7.22-1.62 8.72-5.05V81h8.72V37.4h-8.72v16.07Zm-2.06 20.24a5.72 5.72 0 0 1-4.48 1.8c-5.11 0-6.6-3.04-6.6-10.08 0-3.74.43-6.42 1.74-8.03 1-1.37 2.62-2.06 4.98-2.06 4.67 0 6.6 3.55 6.6 10.15 0 3.68-.68 6.48-2.24 8.22Zm41.76-10.65c-.75 2.62-1.68 5.6-2.37 8.22-.74-3.05-1.5-5.73-2.11-7.72l-4.43-13.7h-9.52l11.95 31.33c-1.18 3.92-1.99 4.86-5.1 4.86-1.19 0-2.5-.38-3.62-.69l-.12 7.6c1.37.43 3.55.8 5.04.8 6.17 0 9.22-2.67 11.77-10.33l11.46-33.57H881l-3.86 13.2Zm29.09 18.69c9.78 0 16.13-6.54 16.13-16.32 0-9.4-6.17-16.32-16.13-16.32-10.09 0-16.2 6.85-16.2 16.32 0 10.15 6.05 16.32 16.2 16.32Zm0-6.23c-2.18 0-3.8-.56-4.86-1.87-1.37-1.5-2-4.17-2-8.22 0-4.05.63-6.66 1.94-8.22 1.12-1.3 2.74-1.87 4.92-1.87 2.18 0 3.8.56 4.92 2 1.25 1.55 1.87 4.1 1.87 8.09s-.56 6.6-1.87 8.16c-1.06 1.37-2.68 1.93-4.92 1.93Zm40.24-8.72c0 6.23-2.74 8.35-5.73 8.35-1.74 0-3.11-.2-4.3-1.5-1.24-1.43-1.36-3.36-1.36-6.23V49.86h-8.91v18c0 4.17.37 7.9 2.8 10.46 2.24 2.37 4.92 3.43 8.85 3.43 4.1 0 7.16-1.8 8.78-5.11V81h8.47V49.86h-8.6V66.8Zm31.72-17.63c-5.04.38-7.72 3-8.78 6.48v-5.8h-8.6V81h8.72V67.11c0-7.53 3.24-10.28 9.1-10.28.56 0 1.12.07 1.62.13l.18-7.85c-.56 0-1.74 0-2.24.06Zm29.37 32.58c9.78 0 16.13-6.54 16.13-16.32 0-9.4-6.16-16.32-16.13-16.32-10.09 0-16.19 6.85-16.19 16.32 0 10.15 6.04 16.32 16.19 16.32Zm0-6.23c-2.18 0-3.8-.56-4.85-1.87-1.37-1.5-2-4.17-2-8.22 0-4.05.63-6.66 1.93-8.22 1.12-1.3 2.74-1.87 4.92-1.87 2.18 0 3.8.56 4.92 2 1.25 1.55 1.87 4.1 1.87 8.09s-.56 6.6-1.87 8.16c-1.05 1.37-2.67 1.93-4.92 1.93Zm34.91 5.48 3.3-14.45c.5-2.05 1.12-5.73 1.74-9.47h.13c.62 3.68 1.12 6.42 1.8 9.47L1052.8 81h9.34l8.84-31.14h-8.9l-3.3 16c-.44 2.19-.81 4.61-1.44 8.16h-.12c-.75-3.6-1.12-6.1-1.56-8.15l-3.55-16.01h-8.78l-3.74 16c-.37 1.5-.93 4.49-1.62 8.16h-.12c-.62-3.73-1.06-6.53-1.37-8.15l-3.24-16.01h-8.97l8.85 31.14h9.34Zm57.7-28.96c-2-2-4.3-2.93-8.29-2.93-4.05 0-7.6 1.5-9.21 5.42v-4.67H1074V81h8.72V64c0-6.42 3.11-8.22 5.79-8.22 1.87 0 2.93.18 4.05 1.24 1.37 1.31 1.62 2.8 1.62 5.67V81h8.78V61.94c0-4.05-.31-7.4-2.8-9.9Zm36.96-2.87c-5.05.38-7.73 3-8.79 6.48v-5.8h-8.59V81h8.72V67.11c0-7.53 3.24-10.28 9.09-10.28.56 0 1.12.07 1.62.13l.19-7.85c-.56 0-1.75 0-2.24.06Zm18.69 32.58c9.78 0 16.13-6.54 16.13-16.32 0-9.4-6.16-16.32-16.13-16.32-10.09 0-16.19 6.85-16.19 16.32 0 10.15 6.04 16.32 16.19 16.32Zm0-6.23c-2.18 0-3.8-.56-4.86-1.87-1.37-1.5-1.99-4.17-1.99-8.22 0-4.05.62-6.66 1.93-8.22 1.12-1.3 2.74-1.87 4.92-1.87 2.18 0 3.8.56 4.92 2 1.25 1.55 1.87 4.1 1.87 8.09s-.56 6.6-1.87 8.16c-1.06 1.37-2.67 1.93-4.92 1.93Zm28.91 5.48V37.4H1176V81h8.72Zm14.45 0V37.4h-8.72V81h8.72Zm25.78-14.2c0 6.23-2.74 8.35-5.73 8.35-1.74 0-3.12-.2-4.3-1.5-1.24-1.43-1.37-3.36-1.37-6.23V49.86h-8.9v18c0 4.17.37 7.9 2.8 10.46 2.24 2.37 4.92 3.43 8.84 3.43 4.11 0 7.16-1.8 8.78-5.11V81h8.47V49.86h-8.59V66.8Zm32.21-17.69c-3.61 0-7.1 1.62-9.15 4.8v-4.05h-8.72v43.6h8.72V77.33a11.7 11.7 0 0 0 9.34 4.42c7.79 0 13.39-6.48 13.39-16.32 0-10.15-5.79-16.32-13.58-16.32Zm1.87 24.85c-1.06 1.06-2.55 1.56-4.61 1.56-4.85 0-6.6-3.61-6.6-10.21 0-3.43.56-6.1 1.87-7.79 1.12-1.43 2.68-2.18 4.92-2.18 4.86 0 6.67 2.87 6.67 9.97 0 4.17-.63 7.03-2.25 8.65Zm42.54 7.04 3.3-14.45c.5-2.05 1.12-5.73 1.75-9.47h.12a166.4 166.4 0 0 0 1.81 9.47l3.36 14.45h9.34l8.85-31.14h-8.91l-3.3 16c-.44 2.19-.81 4.61-1.43 8.16h-.13c-.75-3.6-1.12-6.1-1.56-8.15l-3.55-16.01h-8.78l-3.73 16c-.38 1.5-.94 4.49-1.62 8.16h-.13c-.62-3.73-1.06-6.53-1.37-8.15l-3.24-16.01h-8.96l8.84 31.14h9.34Zm40.26-35.25v-8.97h-8.72v8.97h8.72Zm0 35.25V49.86h-8.72V81h8.72Zm18.18.31c1.62 0 3.31-.12 4.61-.43l-.12-7.42c-1 .2-2.06.32-2.87.32-2.11 0-3.24-.5-3.24-2.25V56.71h6.36v-6.85h-6.36V41.2h-8.59v8.66h-4.48v6.85h4.48v15.82c0 6.48 4.24 8.78 10.21 8.78Zm35.21-29.08c-2.12-2.3-4.61-3.12-8.66-3.12-4.04 0-7.41 1.75-9.03 5.3v-17h-8.65V81h8.72V63.81c0-6.1 3.24-8.03 5.79-8.03 1.87 0 2.99.18 4.17 1.37 1.25 1.24 1.56 2.43 1.56 5.35V81h8.72V62.07c0-4.3-.25-7.29-2.62-9.84Zm-1187.9 98.49a106.05 106.05 0 0 0-37.9-24.06c-14.45-5.39-30.02-8.01-46.72-8.01-24.82 0-46.41 5.51-64.82 16.54-18.4 11.03-32.63 26.38-42.74 46.12C5.02 201.05 0 223.93 0 250.06c0 26.12 5.06 49.93 15.14 69.49 10.11 19.56 24.5 34.65 43.22 45.29 18.71 10.63 41.09 15.93 67.13 15.93 20.85 0 39.3-3.24 55.26-9.67 15.97-6.44 29.05-15.5 39.22-27.1 10.16-11.63 16.88-25.24 20.19-40.9l-64.9-4.3A42.92 42.92 0 0 1 164.7 315a44.85 44.85 0 0 1-16.62 9.93c-6.45 2.23-13.6 3.28-21.41 3.28-11.78 0-21.9-2.5-30.5-7.44-8.59-4.94-15.17-11.99-19.84-21.13-4.67-9.15-7.02-20-7.02-32.56v-.18h172.33v-19.34c0-21.57-3-40.47-9.07-56.58-6.06-16.14-14.48-29.54-25.3-40.26h.05Zm-137.8 72.56c.44-9.1 2.67-17.46 6.94-25.03a52.85 52.85 0 0 1 19.2-19.7c8.2-4.9 17.57-7.35 28.26-7.35 10.68 0 19.19 2.23 26.91 6.7a47.55 47.55 0 0 1 18.19 18.42c4.4 7.83 6.58 16.8 6.58 26.96H69.53Zm286.1-40.92c8.07-5.9 17.53-8.84 28.4-8.84 12.86 0 23.24 3.9 31.22 11.64 7.98 7.8 12.87 17.99 14.75 30.68h66.2c-1-19.6-6.32-36.67-15.96-51.25-9.68-14.52-22.81-25.81-39.38-33.87-16.58-8.05-35.9-12.07-57.97-12.07-25.6 0-47.68 5.55-66.21 16.63-18.59 11.07-32.9 26.43-42.92 46.12-10.04 19.65-15.1 42.49-15.1 68.48 0 26 4.98 48.36 14.92 68.1 9.95 19.73 24.2 35.13 42.83 46.2s40.87 16.59 66.78 16.59c22.51 0 42-4.12 58.5-12.39 16.48-8.27 29.4-19.73 38.77-34.48 9.38-14.7 14.61-31.77 15.75-51.15h-66.21c-1.31 8.92-4.1 16.54-8.34 22.88a42.05 42.05 0 0 1-15.96 14.44c-6.41 3.33-13.65 4.95-21.68 4.95-10.86 0-20.37-2.98-28.48-8.93-8.11-5.95-14.4-14.61-18.84-25.95-4.45-11.33-6.68-25.12-6.68-41.3 0-16.2 2.27-29.59 6.76-40.84 4.5-11.24 10.78-19.78 18.85-25.68v.04ZM583.7 37.34h-70.2v338.48h70.18V37.34ZM647.12 18c-10.34 0-19.24 3.5-26.7 10.5-7.46 7-11.2 15.4-11.2 25.2 0 9.81 3.7 18.17 11.11 25.13 7.42 6.95 16.36 10.41 26.78 10.41 10.43 0 19.37-3.5 26.79-10.5 7.41-7 11.12-15.4 11.12-25.2 0-9.8-3.7-18.17-11.12-25.13C666.48 21.46 657.54 18 647.12 18Zm34.93 103.97h-70.18v253.85h70.18V121.97Zm223.55 11.12a95.46 95.46 0 0 0-51.08-14.44c-14.18 0-26 2.4-35.5 7.17-9.52 4.77-17.2 10.72-23.08 17.86-5.89 7.09-10.34 14.09-13.44 20.91h-3.14v-42.62H710.2V471h70.18V335.17h2.13c3.19 7.04 7.81 14.05 13.83 20.92 6.02 6.87 13.83 12.6 23.3 17.1 9.46 4.51 21.06 6.79 34.67 6.79 19.24 0 36.6-4.99 52.12-14.97 15.53-9.97 27.83-24.68 36.9-44.1 9.08-19.44 13.61-43.33 13.61-71.64 0-28.31-4.66-53.3-14-72.64-9.33-19.34-21.8-33.83-37.38-43.45l.04-.1Zm-26.44 154.86c-4.1 11.3-10.12 20.13-18.06 26.43-7.9 6.35-17.57 9.5-29 9.5s-20.94-3.1-28.83-9.32c-7.9-6.21-13.96-14.97-18.1-26.21-4.2-11.25-6.29-24.42-6.29-39.52 0-15.1 2.1-28.22 6.28-39.34 4.2-11.11 10.17-19.73 18.06-25.77 7.85-6.04 17.5-9.1 28.92-9.1 11.43 0 21.24 3.15 29.14 9.4 7.9 6.3 13.87 14.97 17.97 26.13 4.05 11.11 6.1 24.02 6.1 38.68s-2.05 27.79-6.19 39.08v.04Zm239.77-59.55-45.8-9.24c-11.73-2.53-20.02-5.9-24.86-10.06-4.84-4.2-7.24-9.32-7.24-15.36 0-7.62 3.75-13.7 11.21-18.25 7.46-4.55 16.62-6.87 27.52-6.87 8.11 0 15.14 1.36 21.02 4.07 5.89 2.71 10.65 6.3 14.27 10.77a33.87 33.87 0 0 1 7.06 14.96l64.25-3.98c-3.09-23.37-13.82-41.84-32.19-55.36-18.4-13.56-43.57-20.35-75.54-20.35-21.64 0-40.52 3.2-56.58 9.59-16.09 6.39-28.57 15.49-37.38 27.26-8.85 11.77-13.26 25.82-13.26 42.14 0 18.95 6.02 34.53 18.06 46.78 12.04 12.2 30.4 20.83 55.09 25.77l43.84 8.76c10.99 2.18 19.1 5.38 24.38 9.5 5.28 4.1 7.98 9.4 8.07 15.79-.13 7.61-3.93 13.78-11.43 18.6-7.5 4.81-17.45 7.17-29.75 7.17s-22.77-2.66-30.79-8c-8.03-5.34-13.09-13.13-15.14-23.37l-69 3.63c3.4 24.24 15 43.37 34.85 57.41 19.8 14.05 46.5 21.1 80 21.1 21.98 0 41.39-3.5 58.23-10.5 16.83-7 30.14-16.77 39.86-29.33 9.73-12.55 14.57-27.17 14.57-43.8 0-18.3-6.06-33.04-18.1-44.28-12.08-11.25-30.4-19.39-55-24.47l-.22-.08ZM1440 266.9v-19.34c0-21.57-3.01-40.47-9.07-56.58-6.07-16.14-14.48-29.54-25.3-40.26a106.11 106.11 0 0 0-37.9-24.06c-14.44-5.39-30.01-8.01-46.72-8.01-24.82 0-46.41 5.51-64.82 16.54-18.4 11.03-32.62 26.38-42.74 46.12-10.12 19.74-15.14 42.62-15.14 68.75 0 26.12 5.06 49.93 15.14 69.49 10.12 19.56 24.51 34.65 43.22 45.29 18.72 10.63 41.09 15.93 67.13 15.93 20.85 0 39.3-3.24 55.27-9.67 15.96-6.44 29.05-15.5 39.21-27.1 10.16-11.63 16.88-25.24 20.19-40.9l-64.9-4.3a42.86 42.86 0 0 1-10.56 16.2 44.84 44.84 0 0 1-16.61 9.93c-6.46 2.23-13.61 3.28-21.42 3.28-11.78 0-21.9-2.5-30.49-7.44s-15.18-11.99-19.85-21.13c-4.66-9.15-7.02-20-7.02-32.56v-.18H1440Zm-146.03-88.35c8.2-4.9 17.58-7.35 28.26-7.35 10.69 0 19.19 2.23 26.91 6.7a47.5 47.5 0 0 1 18.19 18.42c4.41 7.83 6.59 16.8 6.59 26.96h-106.08c.44-9.1 2.66-17.46 6.94-25.03a52.82 52.82 0 0 1 19.19-19.7Z" style="fill:black"/></svg>